# xmcd
#
# Track frame offsets: 
#        150
#        14227
#        28941
#        42077
#        55457
#        68287
#        81225
#        94523
#        108711
#        122645
#        137067
#        148607
#        161176
#        173251
#        186219
#        198806
#        212969
#        226997
#        240745
#        254453
#        268383
#        281185
#        294554
#
# Disc length: 4099 seconds
#
# Revision: 4
# Processed by: cddbd v1.5.2PL0 Copyright (c) Steve Scherf et al.
# Submitted via: ExactAudioCopyFreeDBPlugin 1.0
#
DISCID=5f100117
DTITLE=Blind Lemon Jefferson - The Complete 94 Classic Sides Remastere
DTITLE=d [disc A]
DYEAR=2002
DGENRE=Blues
TTITLE0=I Want to Be Like Jesus in My Heart
TTITLE1=All I Want Is That Pure Religion
TTITLE2=Got the Blues
TTITLE3=Long Lonesome Blues
TTITLE4=Booster Blues
TTITLE5=Dry Southern Blues
TTITLE6=Black Horse Blues
TTITLE7=Corinna Blues
TTITLE8=Got the Blues
TTITLE9=Long Lonesome Blues
TTITLE10=Jack O' Diamond Blues [take 1]
TTITLE11=Jack O' Diamond Blues [take 2]
TTITLE12=Chock House Blues
TTITLE13=Beggin' Back
TTITLE14=Old Rounders Blues
TTITLE15=Stocking Feet Blues
TTITLE16=That Black Snake Moan
TTITLE17=Wartime Blues
TTITLE18=Broke and Hungry
TTITLE19=Shuckin' Sugar Blues
TTITLE20=Booger Rooger Blues
TTITLE21=Rabbit Foot Blues
TTITLE22=Bad Luck Blues
EXTD=
EXTT0=
EXTT1=
EXTT2=
EXTT3=
EXTT4=
EXTT5=
EXTT6=
EXTT7=
EXTT8=
EXTT9=
EXTT10=
EXTT11=
EXTT12=
EXTT13=
EXTT14=
EXTT15=
EXTT16=
EXTT17=
EXTT18=
EXTT19=
EXTT20=
EXTT21=
EXTT22=
PLAYORDER=
